<!--?xml version="1.0" standalone="no"?-->
              <svg id="sw-js-blob-svg" viewBox="0 0 100 100" xmlns="http://www.w3.org/2000/svg" version="1.1">
                    <defs> 
                        <linearGradient id="sw-gradient" x1="0" x2="1" y1="1" y2="0">
                            <stop id="stop1" stop-color="rgba(251, 168, 31, 1)" offset="0%"></stop>
                            <stop id="stop2" stop-color="rgba(251, 168, 31, 1)" offset="100%"></stop>
                        </linearGradient>
                    </defs>
                <path fill="url(#sw-gradient)" d="M21.6,-39.4C26.6,-34.6,28.2,-25.9,31.8,-18.7C35.4,-11.5,41,-5.7,42,0.6C43,6.9,39.3,13.7,35,19.8C30.8,25.8,25.9,31.1,19.9,33.3C14,35.5,7,34.7,0.4,34C-6.2,33.3,-12.4,32.7,-19.5,31.2C-26.6,29.6,-34.7,27.1,-38.2,21.8C-41.7,16.4,-40.7,8.2,-38.9,1C-37.2,-6.2,-34.7,-12.4,-31.3,-18C-28,-23.7,-23.8,-28.8,-18.4,-33.4C-13,-38,-6.5,-42.1,0.9,-43.7C8.3,-45.2,16.7,-44.3,21.6,-39.4Z" width="100%" height="100%" transform="translate(50 50)" style="transition: 0.3s;" stroke-width="0"></path>
              </svg>