<svg width="336" height="329" viewBox="0 0 336 329" fill="none" xmlns="http://www.w3.org/2000/svg"><path d="M0.999992 122.643L0.999995 206.465C0.999998 273.647 49.9893 328.109 110.421 328.109L224.969 328.109C285.4 328.109 334.389 273.647 334.389 206.465L334.389 122.643C334.389 55.4612 285.4 0.999285 224.969 0.999287L110.421 0.999293C49.9893 0.999296 0.999989 55.4612 0.999992 122.643Z" stroke="#A142FF" stroke-width="1.5" stroke-miterlimit="10"/><path d="M56.5781 137.16L56.5781 191.96C56.5781 237.039 89.4495 273.582 129.998 273.582L205.378 273.582C245.926 273.582 278.798 237.039 278.798 191.96L278.798 137.16C278.798 92.0817 245.926 55.5383 205.378 55.5383L129.998 55.5383C89.4495 55.5383 56.5781 92.0817 56.5781 137.16Z" stroke="#A142FF" stroke-width="1.5" stroke-miterlimit="10"/><path d="M113.187 151.647L113.187 177.436C113.187 198.644 128.652 215.836 147.729 215.836L183.21 215.836C202.286 215.836 217.751 198.644 217.751 177.436L217.751 151.647C217.751 130.44 202.286 113.247 183.21 113.247L147.729 113.247C128.652 113.247 113.187 130.44 113.187 151.647Z" fill="#A142FF" stroke="#A142FF" stroke-width="1.5" stroke-miterlimit="10"/></svg>