<svg width="622" height="142" viewBox="0 0 622 142" fill="none" xmlns="http://www.w3.org/2000/svg"><path d="M339.362 7.22754L339.362 7.22773L401.605 63.5297L401.856 63.2516L401.605 63.5298C408.425 69.6969 408.277 79.4327 401.277 85.4457L401.521 85.7301L401.277 85.4457L342.392 136.054L342.392 136.054C338.996 138.978 334.388 140.625 329.576 140.625H205.538C195.44 140.625 187.35 133.536 187.375 124.918L187 124.917L187.375 124.918L187.676 19.2856C187.676 19.2856 187.676 19.2855 187.676 19.2855C187.701 10.7327 195.7 3.71126 205.712 3.65294L205.714 3.65293L326.101 2.37546C326.102 2.37546 326.102 2.37546 326.102 2.37546C331.116 2.34237 335.917 4.10613 339.362 7.22754Z" stroke="#3B37E6" stroke-width="0.75"/><path d="M149 2L10.8967 2C1.62892 2 -2.65289 13.5167 4.36391 19.5711L142.467 138.735C148.947 144.326 159 139.722 159 131.163L159 12C159 6.47715 154.523 2 149 2Z" stroke="#FF7369"/><rect x="428" width="194" height="142" rx="65" fill="#3B37E6"/></svg>